<svg xmlns="http://www.w3.org/2000/svg" xmlns:xlink="http://www.w3.org/1999/xlink" viewBox="0 0 1600 900"><defs><style>.cls-1{fill:url(#linear-gradient);}.cls-2{fill:#9be249;}.cls-3{fill:#efce0f;}.cls-4{fill:#937d1d;}.cls-5{fill:#e23b3b;}.cls-6{fill:none;stroke:#f7f5f5;}.cls-6,.cls-7{stroke-miterlimit:10;stroke-width:6px;}.cls-7{fill:#3fbeff;stroke:#fff;}.cls-8{fill:#fff;}</style><linearGradient id="linear-gradient" x1="466.04" y1="102.54" x2="1148.25" y2="784.75" gradientUnits="userSpaceOnUse"><stop offset="0" stop-color="#cce0f4"/><stop offset="0.2" stop-color="#c3dff6"/><stop offset="0.52" stop-color="#a9defb"/><stop offset="0.75" stop-color="#94dcff"/></linearGradient></defs><title>baggrund</title><g id="himmel"><rect class="cls-1" x="-46" y="-57" width="1740" height="1035"/></g><g id="grøn_mark" data-name="grøn mark"><path class="cls-2" d="M-112,339s321-60,675,186V774H-112Z"/></g><g id="gul_mark" data-name="gul mark"><path class="cls-3" d="M1694,336S953,168-73,732l-21,357H1694Z"/></g><g id="strå"><path class="cls-4" d="M134.57,624.7a3274.19,3274.19,0,0,1,33.65,489.14"/><path class="cls-4" d="M203.57,624.7a3274.19,3274.19,0,0,1,33.65,489.14"/><path class="cls-4" d="M276.57,624.7a3274.19,3274.19,0,0,1,33.65,489.14"/><path class="cls-4" d="M359.57,624.7a3274.19,3274.19,0,0,1,33.65,489.14"/><path class="cls-4" d="M307.57,617.7a3274.19,3274.19,0,0,1,33.65,489.14"/><path class="cls-4" d="M409.57,617.7a3274.19,3274.19,0,0,1,33.65,489.14"/><path class="cls-4" d="M461.57,601.7a3274.19,3274.19,0,0,1,33.65,489.14"/><path class="cls-4" d="M495.57,601.7a3274.19,3274.19,0,0,1,33.65,489.14"/><path class="cls-4" d="M555.57,601.7a3274.19,3274.19,0,0,1,33.65,489.14"/><path class="cls-4" d="M640.57,601.7a3274.19,3274.19,0,0,1,33.65,489.14"/><path class="cls-4" d="M691.57,601.7a3274.19,3274.19,0,0,1,33.65,489.14"/><path class="cls-4" d="M739.57,589.7a3274.19,3274.19,0,0,1,33.65,489.14"/><path class="cls-4" d="M386.57,636.7a3274.19,3274.19,0,0,1,33.65,489.14"/><path class="cls-4" d="M3.57,598.7a3274.19,3274.19,0,0,1,33.65,489.14"/><path class="cls-4" d="M66.57,598.7a3274.19,3274.19,0,0,1,33.65,489.14"/><path class="cls-4" d="M159.57,598.7a3274.19,3274.19,0,0,1,33.65,489.14"/><path class="cls-4" d="M186.57,610.7a3274.19,3274.19,0,0,1,33.65,489.14"/><path class="cls-4" d="M252.57,604.7a3274.19,3274.19,0,0,1,33.65,489.14"/><path class="cls-4" d="M321.57,604.7a3274.19,3274.19,0,0,1,33.65,489.14"/><path class="cls-4" d="M423.93,576.7c11.51,161.9,17,325.56,16.53,489.14"/><path class="cls-4" d="M83.57,624.7a3274.19,3274.19,0,0,1,33.65,489.14"/><path class="cls-4" d="M121.57,624.7a3274.19,3274.19,0,0,1,33.65,489.14"/><path class="cls-4" d="M225.57,624.7a3274.19,3274.19,0,0,1,33.65,489.14"/><path class="cls-4" d="M308.57,624.7a3274.19,3274.19,0,0,1,33.65,489.14"/><path class="cls-4" d="M25.57,598.7a3274.19,3274.19,0,0,1,33.65,489.14"/><path class="cls-4" d="M135.57,610.7a3274.19,3274.19,0,0,1,33.65,489.14"/><path class="cls-4" d="M201.57,604.7a3274.19,3274.19,0,0,1,33.65,489.14"/><path class="cls-4" d="M369.93,604.7c11.51,161.9,17,325.56,16.53,489.14"/><path class="cls-4" d="M-14.43,616.7a3274.19,3274.19,0,0,1,33.65,489.14"/><path class="cls-4" d="M43.57,624.7a3274.19,3274.19,0,0,1,33.65,489.14"/><path class="cls-4" d="M240.57,642.7a3274.19,3274.19,0,0,1,33.65,489.14"/><path class="cls-4" d="M512.57,624.7a3274.19,3274.19,0,0,1,33.65,489.14"/><path class="cls-4" d="M583.57,604.7a3274.19,3274.19,0,0,1,33.65,489.14"/><path class="cls-4" d="M-31.43,602.7A3274.19,3274.19,0,0,1,2.22,1091.84"/><path class="cls-4" d="M1428.57,610.7a3274.19,3274.19,0,0,1,33.65,489.14"/><path class="cls-4" d="M611.93,604.7c11.51,161.9,17,325.56,16.53,489.14"/><path class="cls-4" d="M343.57,597.7a3274.19,3274.19,0,0,1,33.65,489.14"/><path class="cls-4" d="M426.57,596.7a3274.19,3274.19,0,0,1,33.65,489.14"/><path class="cls-4" d="M437.57,575.7a3274.19,3274.19,0,0,1,33.65,489.14"/><path class="cls-4" d="M529.57,581.7a3274.19,3274.19,0,0,1,33.65,489.14"/><path class="cls-4" d="M593.57,575.7a3274.19,3274.19,0,0,1,33.65,489.14"/><path class="cls-4" d="M620.57,587.7a3274.19,3274.19,0,0,1,33.65,489.14"/><path class="cls-4" d="M480.57,601.7a3274.19,3274.19,0,0,1,33.65,489.14"/><path class="cls-4" d="M664.57,601.7a3274.19,3274.19,0,0,1,33.65,489.14"/><path class="cls-4" d="M713.57,613.7a3274.19,3274.19,0,0,1,33.65,489.14"/><path class="cls-4" d="M773.57,613.7a3274.19,3274.19,0,0,1,33.65,489.14"/><path class="cls-4" d="M870.57,613.7a3274.19,3274.19,0,0,1,33.65,489.14"/><path class="cls-4" d="M926.57,613.7a3274.19,3274.19,0,0,1,33.65,489.14"/><path class="cls-4" d="M991.57,601.7a3274.19,3274.19,0,0,1,33.65,489.14"/><path class="cls-4" d="M566.57,601.7a3274.19,3274.19,0,0,1,33.65,489.14"/><path class="cls-4" d="M758.57,601.7a3274.19,3274.19,0,0,1,33.65,489.14"/><path class="cls-4" d="M814.57,601.7a3274.19,3274.19,0,0,1,33.65,489.14"/><path class="cls-4" d="M896.57,601.7a3274.19,3274.19,0,0,1,33.65,489.14"/><path class="cls-4" d="M971.57,613.7a3274.19,3274.19,0,0,1,33.65,489.14"/><path class="cls-4" d="M1047.57,613.7a3274.19,3274.19,0,0,1,33.65,489.14"/><path class="cls-4" d="M1216.57,601.7a3274.19,3274.19,0,0,1,33.65,489.14"/><path class="cls-4" d="M1141.57,613.7a3274.19,3274.19,0,0,1,33.65,489.14"/><path class="cls-4" d="M1166.57,601.7a3274.19,3274.19,0,0,1,33.65,489.14"/><path class="cls-4" d="M946.57,601.7a3274.19,3274.19,0,0,1,33.65,489.14"/><path class="cls-4" d="M1200.57,601.7a3274.19,3274.19,0,0,1,33.65,489.14"/><path class="cls-4" d="M1265.57,589.7a3274.19,3274.19,0,0,1,33.65,489.14"/><path class="cls-4" d="M841.57,613.7a3274.19,3274.19,0,0,1,33.65,489.14"/><path class="cls-4" d="M910.57,613.7a3274.19,3274.19,0,0,1,33.65,489.14"/><path class="cls-4" d="M1066.57,613.7a3274.19,3274.19,0,0,1,33.65,489.14"/><path class="cls-4" d="M1128.57,613.7a3274.19,3274.19,0,0,1,33.65,489.14"/><path class="cls-4" d="M1190.57,601.7a3274.19,3274.19,0,0,1,33.65,489.14"/><path class="cls-4" d="M1239.57,613.7a3274.19,3274.19,0,0,1,33.65,489.14"/><path class="cls-4" d="M1299.57,613.7a3274.19,3274.19,0,0,1,33.65,489.14"/><path class="cls-4" d="M1333.57,613.7a3274.19,3274.19,0,0,1,33.65,489.14"/><path class="cls-4" d="M1418.57,613.7a3274.19,3274.19,0,0,1,33.65,489.14"/><path class="cls-4" d="M1452.57,613.7a3274.19,3274.19,0,0,1,33.65,489.14"/><path class="cls-4" d="M1517.57,601.7a3274.19,3274.19,0,0,1,33.65,489.14"/><path class="cls-4" d="M1389.57,601.7a3274.19,3274.19,0,0,1,33.65,489.14"/><path class="cls-4" d="M1311.57,613.7a3274.19,3274.19,0,0,1,33.65,489.14"/><path class="cls-4" d="M1376.57,601.7a3274.19,3274.19,0,0,1,33.65,489.14"/><path class="cls-4" d="M1539.57,587.7a3274.19,3274.19,0,0,1,33.65,489.14"/><path class="cls-4" d="M1350.57,625.7a3274.19,3274.19,0,0,1,33.65,489.14"/><path class="cls-4" d="M1580.57,613.7a3274.19,3274.19,0,0,1,33.65,489.14"/><path class="cls-4" d="M1468.57,625.7a3274.19,3274.19,0,0,1,33.65,489.14"/><path class="cls-4" d="M1529.57,625.7a3274.19,3274.19,0,0,1,33.65,489.14"/><path class="cls-4" d="M1563.57,625.7a3274.19,3274.19,0,0,1,33.65,489.14"/><path class="cls-4" d="M1016.57,601.7a3274.19,3274.19,0,0,1,33.65,489.14"/><path class="cls-4" d="M1081.57,589.7a3274.19,3274.19,0,0,1,33.65,489.14"/><path class="cls-4" d="M1038.57,613.7a3274.19,3274.19,0,0,1,33.65,489.14"/><path class="cls-4" d="M1115.57,613.7a3274.19,3274.19,0,0,1,33.65,489.14"/><path class="cls-4" d="M794.57,601.7a3274.19,3274.19,0,0,1,33.65,489.14"/><path class="cls-4" d="M1498.57,589.7a3274.19,3274.19,0,0,1,33.65,489.14"/><path class="cls-4" d="M1481.57,589.7a3274.19,3274.19,0,0,1,33.65,489.14"/><path class="cls-4" d="M1333.57,601.7a3274.19,3274.19,0,0,1,33.65,489.14"/><path class="cls-4" d="M84.57,626.7a3274.19,3274.19,0,0,1,33.65,489.14"/><path class="cls-4" d="M153.57,626.7a3274.19,3274.19,0,0,1,33.65,489.14"/><path class="cls-4" d="M226.57,626.7a3274.19,3274.19,0,0,1,33.65,489.14"/><path class="cls-4" d="M309.57,626.7a3274.19,3274.19,0,0,1,33.65,489.14"/><path class="cls-4" d="M257.57,619.7a3274.19,3274.19,0,0,1,33.65,489.14"/><path class="cls-4" d="M359.57,619.7a3274.19,3274.19,0,0,1,33.65,489.14"/><path class="cls-4" d="M411.57,603.7a3274.19,3274.19,0,0,1,33.65,489.14"/><path class="cls-4" d="M445.57,603.7a3274.19,3274.19,0,0,1,33.65,489.14"/><path class="cls-4" d="M505.57,603.7a3274.19,3274.19,0,0,1,33.65,489.14"/><path class="cls-4" d="M590.57,603.7a3274.19,3274.19,0,0,1,33.65,489.14"/><path class="cls-4" d="M641.57,603.7a3274.19,3274.19,0,0,1,33.65,489.14"/><path class="cls-4" d="M689.57,591.7a3274.19,3274.19,0,0,1,33.65,489.14"/><path class="cls-4" d="M336.57,638.7a3274.19,3274.19,0,0,1,33.65,489.14"/><path class="cls-4" d="M16.57,600.7a3274.19,3274.19,0,0,1,33.65,489.14"/><path class="cls-4" d="M109.57,600.7a3274.19,3274.19,0,0,1,33.65,489.14"/><path class="cls-4" d="M136.57,612.7a3274.19,3274.19,0,0,1,33.65,489.14"/><path class="cls-4" d="M202.57,606.7a3274.19,3274.19,0,0,1,33.65,489.14"/><path class="cls-4" d="M271.57,606.7a3274.19,3274.19,0,0,1,33.65,489.14"/><path class="cls-4" d="M373.93,578.7c11.51,161.9,17,325.56,16.53,489.14"/><path class="cls-4" d="M33.57,626.7a3274.19,3274.19,0,0,1,33.65,489.14"/><path class="cls-4" d="M71.57,626.7a3274.19,3274.19,0,0,1,33.65,489.14"/><path class="cls-4" d="M175.57,626.7a3274.19,3274.19,0,0,1,33.65,489.14"/><path class="cls-4" d="M258.57,626.7a3274.19,3274.19,0,0,1,33.65,489.14"/><path class="cls-4" d="M-24.43,600.7A3274.19,3274.19,0,0,1,9.22,1089.84"/><path class="cls-4" d="M85.57,612.7a3274.19,3274.19,0,0,1,33.65,489.14"/><path class="cls-4" d="M151.57,606.7a3274.19,3274.19,0,0,1,33.65,489.14"/><path class="cls-4" d="M319.93,606.7c11.51,161.9,17,325.56,16.53,489.14"/><path class="cls-4" d="M-6.43,626.7a3274.19,3274.19,0,0,1,33.65,489.14"/><path class="cls-4" d="M190.57,644.7a3274.19,3274.19,0,0,1,33.65,489.14"/><path class="cls-4" d="M462.57,626.7a3274.19,3274.19,0,0,1,33.65,489.14"/><path class="cls-4" d="M533.57,606.7a3274.19,3274.19,0,0,1,33.65,489.14"/><path class="cls-4" d="M1378.57,612.7a3274.19,3274.19,0,0,1,33.65,489.14"/><path class="cls-4" d="M561.93,606.7c11.51,161.9,17,325.56,16.53,489.14"/><path class="cls-4" d="M293.57,599.7a3274.19,3274.19,0,0,1,33.65,489.14"/><path class="cls-4" d="M376.57,598.7a3274.19,3274.19,0,0,1,33.65,489.14"/><path class="cls-4" d="M387.57,577.7a3274.19,3274.19,0,0,1,33.65,489.14"/><path class="cls-4" d="M479.57,583.7a3274.19,3274.19,0,0,1,33.65,489.14"/><path class="cls-4" d="M543.57,577.7a3274.19,3274.19,0,0,1,33.65,489.14"/><path class="cls-4" d="M570.57,589.7a3274.19,3274.19,0,0,1,33.65,489.14"/><path class="cls-4" d="M430.57,603.7a3274.19,3274.19,0,0,1,33.65,489.14"/><path class="cls-4" d="M614.57,603.7a3274.19,3274.19,0,0,1,33.65,489.14"/><path class="cls-4" d="M663.57,615.7a3274.19,3274.19,0,0,1,33.65,489.14"/><path class="cls-4" d="M723.57,615.7a3274.19,3274.19,0,0,1,33.65,489.14"/><path class="cls-4" d="M820.57,615.7a3274.19,3274.19,0,0,1,33.65,489.14"/><path class="cls-4" d="M876.57,615.7a3274.19,3274.19,0,0,1,33.65,489.14"/><path class="cls-4" d="M941.57,603.7a3274.19,3274.19,0,0,1,33.65,489.14"/><path class="cls-4" d="M516.57,603.7a3274.19,3274.19,0,0,1,33.65,489.14"/><path class="cls-4" d="M708.57,603.7a3274.19,3274.19,0,0,1,33.65,489.14"/><path class="cls-4" d="M764.57,603.7a3274.19,3274.19,0,0,1,33.65,489.14"/><path class="cls-4" d="M846.57,603.7a3274.19,3274.19,0,0,1,33.65,489.14"/><path class="cls-4" d="M921.57,615.7a3274.19,3274.19,0,0,1,33.65,489.14"/><path class="cls-4" d="M997.57,615.7a3274.19,3274.19,0,0,1,33.65,489.14"/><path class="cls-4" d="M1166.57,603.7a3274.19,3274.19,0,0,1,33.65,489.14"/><path class="cls-4" d="M1091.57,615.7a3274.19,3274.19,0,0,1,33.65,489.14"/><path class="cls-4" d="M1116.57,603.7a3274.19,3274.19,0,0,1,33.65,489.14"/><path class="cls-4" d="M896.57,603.7a3274.19,3274.19,0,0,1,33.65,489.14"/><path class="cls-4" d="M1150.57,603.7a3274.19,3274.19,0,0,1,33.65,489.14"/><path class="cls-4" d="M1215.57,591.7a3274.19,3274.19,0,0,1,33.65,489.14"/><path class="cls-4" d="M791.57,615.7a3274.19,3274.19,0,0,1,33.65,489.14"/><path class="cls-4" d="M860.57,615.7a3274.19,3274.19,0,0,1,33.65,489.14"/><path class="cls-4" d="M1016.57,615.7a3274.19,3274.19,0,0,1,33.65,489.14"/><path class="cls-4" d="M1078.57,615.7a3274.19,3274.19,0,0,1,33.65,489.14"/><path class="cls-4" d="M1140.57,603.7a3274.19,3274.19,0,0,1,33.65,489.14"/><path class="cls-4" d="M1189.57,615.7a3274.19,3274.19,0,0,1,33.65,489.14"/><path class="cls-4" d="M1249.57,615.7a3274.19,3274.19,0,0,1,33.65,489.14"/><path class="cls-4" d="M1283.57,615.7a3274.19,3274.19,0,0,1,33.65,489.14"/><path class="cls-4" d="M1368.57,615.7a3274.19,3274.19,0,0,1,33.65,489.14"/><path class="cls-4" d="M1402.57,615.7a3274.19,3274.19,0,0,1,33.65,489.14"/><path class="cls-4" d="M1467.57,603.7a3274.19,3274.19,0,0,1,33.65,489.14"/><path class="cls-4" d="M1339.57,603.7a3274.19,3274.19,0,0,1,33.65,489.14"/><path class="cls-4" d="M1261.57,615.7a3274.19,3274.19,0,0,1,33.65,489.14"/><path class="cls-4" d="M1326.57,603.7a3274.19,3274.19,0,0,1,33.65,489.14"/><path class="cls-4" d="M1489.57,589.7a3274.19,3274.19,0,0,1,33.65,489.14"/><path class="cls-4" d="M1300.57,627.7a3274.19,3274.19,0,0,1,33.65,489.14"/><path class="cls-4" d="M1530.57,615.7a3274.19,3274.19,0,0,1,33.65,489.14"/><path class="cls-4" d="M1418.57,627.7a3274.19,3274.19,0,0,1,33.65,489.14"/><path class="cls-4" d="M1479.57,627.7a3274.19,3274.19,0,0,1,33.65,489.14"/><path class="cls-4" d="M1513.57,627.7a3274.19,3274.19,0,0,1,33.65,489.14"/><path class="cls-4" d="M1578.57,615.7a3274.19,3274.19,0,0,1,33.65,489.14"/><path class="cls-4" d="M966.57,603.7a3274.19,3274.19,0,0,1,33.65,489.14"/><path class="cls-4" d="M1031.57,591.7a3274.19,3274.19,0,0,1,33.65,489.14"/><path class="cls-4" d="M988.57,615.7a3274.19,3274.19,0,0,1,33.65,489.14"/><path class="cls-4" d="M1065.57,615.7a3274.19,3274.19,0,0,1,33.65,489.14"/><path class="cls-4" d="M744.57,603.7a3274.19,3274.19,0,0,1,33.65,489.14"/><path class="cls-4" d="M1448.57,591.7a3274.19,3274.19,0,0,1,33.65,489.14"/><path class="cls-4" d="M1431.57,591.7a3274.19,3274.19,0,0,1,33.65,489.14"/><path class="cls-4" d="M1283.57,603.7a3274.19,3274.19,0,0,1,33.65,489.14"/><path class="cls-4" d="M177.57,619.7a3274.19,3274.19,0,0,1,33.65,489.14"/><path class="cls-4" d="M246.57,619.7a3274.19,3274.19,0,0,1,33.65,489.14"/><path class="cls-4" d="M319.57,619.7a3274.19,3274.19,0,0,1,33.65,489.14"/><path class="cls-4" d="M402.57,619.7a3274.19,3274.19,0,0,1,33.65,489.14"/><path class="cls-4" d="M452.57,612.7a3274.19,3274.19,0,0,1,33.65,489.14"/><path class="cls-4" d="M504.57,596.7a3274.19,3274.19,0,0,1,33.65,489.14"/><path class="cls-4" d="M538.57,596.7a3274.19,3274.19,0,0,1,33.65,489.14"/><path class="cls-4" d="M598.57,596.7a3274.19,3274.19,0,0,1,33.65,489.14"/><path class="cls-4" d="M683.57,596.7a3274.19,3274.19,0,0,1,33.65,489.14"/><path class="cls-4" d="M734.57,596.7a3274.19,3274.19,0,0,1,33.65,489.14"/><path class="cls-4" d="M782.57,584.7a3274.19,3274.19,0,0,1,33.65,489.14"/><path class="cls-4" d="M429.57,631.7a3274.19,3274.19,0,0,1,33.65,489.14"/><path class="cls-4" d="M-22.43,593.7a3274.19,3274.19,0,0,1,33.65,489.14"/><path class="cls-4" d="M46.57,593.7a3274.19,3274.19,0,0,1,33.65,489.14"/><path class="cls-4" d="M109.57,593.7a3274.19,3274.19,0,0,1,33.65,489.14"/><path class="cls-4" d="M202.57,593.7a3274.19,3274.19,0,0,1,33.65,489.14"/><path class="cls-4" d="M229.57,605.7a3274.19,3274.19,0,0,1,33.65,489.14"/><path class="cls-4" d="M295.57,599.7a3274.19,3274.19,0,0,1,33.65,489.14"/><path class="cls-4" d="M466.93,571.7c11.51,161.9,17,325.56,16.53,489.14"/><path class="cls-4" d="M126.57,619.7a3274.19,3274.19,0,0,1,33.65,489.14"/><path class="cls-4" d="M164.57,619.7a3274.19,3274.19,0,0,1,33.65,489.14"/><path class="cls-4" d="M268.57,619.7a3274.19,3274.19,0,0,1,33.65,489.14"/><path class="cls-4" d="M68.57,593.7a3274.19,3274.19,0,0,1,33.65,489.14"/><path class="cls-4" d="M178.57,605.7a3274.19,3274.19,0,0,1,33.65,489.14"/><path class="cls-4" d="M244.57,599.7a3274.19,3274.19,0,0,1,33.65,489.14"/><path class="cls-4" d="M412.93,599.7c11.51,161.9,17,325.56,16.53,489.14"/><path class="cls-4" d="M28.57,611.7a3274.19,3274.19,0,0,1,33.65,489.14"/><path class="cls-4" d="M86.57,619.7a3274.19,3274.19,0,0,1,33.65,489.14"/><path class="cls-4" d="M283.57,637.7a3274.19,3274.19,0,0,1,33.65,489.14"/><path class="cls-4" d="M555.57,619.7a3274.19,3274.19,0,0,1,33.65,489.14"/><path class="cls-4" d="M626.57,599.7a3274.19,3274.19,0,0,1,33.65,489.14"/><path class="cls-4" d="M11.57,597.7a3274.19,3274.19,0,0,1,33.65,489.14"/><path class="cls-4" d="M654.93,599.7c11.51,161.9,17,325.56,16.53,489.14"/><path class="cls-4" d="M469.57,591.7a3274.19,3274.19,0,0,1,33.65,489.14"/><path class="cls-4" d="M480.57,570.7a3274.19,3274.19,0,0,1,33.65,489.14"/><path class="cls-4" d="M572.57,576.7a3274.19,3274.19,0,0,1,33.65,489.14"/><path class="cls-4" d="M636.57,570.7a3274.19,3274.19,0,0,1,33.65,489.14"/><path class="cls-4" d="M663.57,582.7a3274.19,3274.19,0,0,1,33.65,489.14"/><path class="cls-4" d="M707.57,596.7a3274.19,3274.19,0,0,1,33.65,489.14"/><path class="cls-4" d="M756.57,608.7a3274.19,3274.19,0,0,1,33.65,489.14"/><path class="cls-4" d="M816.57,608.7a3274.19,3274.19,0,0,1,33.65,489.14"/><path class="cls-4" d="M913.57,608.7a3274.19,3274.19,0,0,1,33.65,489.14"/><path class="cls-4" d="M969.57,608.7a3274.19,3274.19,0,0,1,33.65,489.14"/><path class="cls-4" d="M1034.57,596.7a3274.19,3274.19,0,0,1,33.65,489.14"/><path class="cls-4" d="M609.57,596.7a3274.19,3274.19,0,0,1,33.65,489.14"/><path class="cls-4" d="M801.57,596.7a3274.19,3274.19,0,0,1,33.65,489.14"/><path class="cls-4" d="M857.57,596.7a3274.19,3274.19,0,0,1,33.65,489.14"/><path class="cls-4" d="M939.57,596.7a3274.19,3274.19,0,0,1,33.65,489.14"/><path class="cls-4" d="M1014.57,608.7a3274.19,3274.19,0,0,1,33.65,489.14"/><path class="cls-4" d="M1090.57,608.7a3274.19,3274.19,0,0,1,33.65,489.14"/><path class="cls-4" d="M1259.57,596.7a3274.19,3274.19,0,0,1,33.65,489.14"/><path class="cls-4" d="M1184.57,608.7a3274.19,3274.19,0,0,1,33.65,489.14"/><path class="cls-4" d="M1209.57,596.7a3274.19,3274.19,0,0,1,33.65,489.14"/><path class="cls-4" d="M989.57,596.7a3274.19,3274.19,0,0,1,33.65,489.14"/><path class="cls-4" d="M1243.57,596.7a3274.19,3274.19,0,0,1,33.65,489.14"/><path class="cls-4" d="M1308.57,584.7a3274.19,3274.19,0,0,1,33.65,489.14"/><path class="cls-4" d="M884.57,608.7a3274.19,3274.19,0,0,1,33.65,489.14"/><path class="cls-4" d="M953.57,608.7a3274.19,3274.19,0,0,1,33.65,489.14"/><path class="cls-4" d="M1109.57,608.7a3274.19,3274.19,0,0,1,33.65,489.14"/><path class="cls-4" d="M1171.57,608.7a3274.19,3274.19,0,0,1,33.65,489.14"/><path class="cls-4" d="M1233.57,596.7a3274.19,3274.19,0,0,1,33.65,489.14"/><path class="cls-4" d="M1282.57,608.7a3274.19,3274.19,0,0,1,33.65,489.14"/><path class="cls-4" d="M1376.57,608.7a3274.19,3274.19,0,0,1,33.65,489.14"/><path class="cls-4" d="M1461.57,608.7a3274.19,3274.19,0,0,1,33.65,489.14"/><path class="cls-4" d="M1560.57,596.7a3274.19,3274.19,0,0,1,33.65,489.14"/><path class="cls-4" d="M1432.57,596.7a3274.19,3274.19,0,0,1,33.65,489.14"/><path class="cls-4" d="M1354.57,608.7a3274.19,3274.19,0,0,1,33.65,489.14"/><path class="cls-4" d="M1419.57,596.7a3274.19,3274.19,0,0,1,33.65,489.14"/><path class="cls-4" d="M1582.57,582.7a3274.19,3274.19,0,0,1,33.65,489.14"/><path class="cls-4" d="M1393.57,620.7a3274.19,3274.19,0,0,1,33.65,489.14"/><path class="cls-4" d="M1511.57,620.7a3274.19,3274.19,0,0,1,33.65,489.14"/><path class="cls-4" d="M1572.57,620.7a3274.19,3274.19,0,0,1,33.65,489.14"/><path class="cls-4" d="M1059.57,596.7a3274.19,3274.19,0,0,1,33.65,489.14"/><path class="cls-4" d="M1124.57,584.7a3274.19,3274.19,0,0,1,33.65,489.14"/><path class="cls-4" d="M1081.57,608.7a3274.19,3274.19,0,0,1,33.65,489.14"/><path class="cls-4" d="M1158.57,608.7a3274.19,3274.19,0,0,1,33.65,489.14"/><path class="cls-4" d="M837.57,596.7a3274.19,3274.19,0,0,1,33.65,489.14"/><path class="cls-4" d="M1541.57,584.7a3274.19,3274.19,0,0,1,33.65,489.14"/><path class="cls-4" d="M1524.57,584.7a3274.19,3274.19,0,0,1,33.65,489.14"/><path class="cls-4" d="M1376.57,596.7a3274.19,3274.19,0,0,1,33.65,489.14"/><path class="cls-4" d="M187.57,615.7a3274.19,3274.19,0,0,1,33.65,489.14"/><path class="cls-4" d="M291.57,608.7a3274.19,3274.19,0,0,1,33.65,489.14"/><path class="cls-4" d="M479.57,592.7a3274.19,3274.19,0,0,1,33.65,489.14"/><path class="cls-4" d="M539.57,592.7a3274.19,3274.19,0,0,1,33.65,489.14"/><path class="cls-4" d="M624.57,592.7a3274.19,3274.19,0,0,1,33.65,489.14"/><path class="cls-4" d="M675.57,592.7a3274.19,3274.19,0,0,1,33.65,489.14"/><path class="cls-4" d="M723.57,580.7a3274.19,3274.19,0,0,1,33.65,489.14"/><path class="cls-4" d="M50.57,589.7a3274.19,3274.19,0,0,1,33.65,489.14"/><path class="cls-4" d="M143.57,589.7a3274.19,3274.19,0,0,1,33.65,489.14"/><path class="cls-4" d="M305.57,595.7a3274.19,3274.19,0,0,1,33.65,489.14"/><path class="cls-4" d="M67.57,615.7a3274.19,3274.19,0,0,1,33.65,489.14"/><path class="cls-4" d="M105.57,615.7a3274.19,3274.19,0,0,1,33.65,489.14"/><path class="cls-4" d="M209.57,615.7a3274.19,3274.19,0,0,1,33.65,489.14"/><path class="cls-4" d="M292.57,615.7a3274.19,3274.19,0,0,1,33.65,489.14"/><path class="cls-4" d="M185.57,595.7a3274.19,3274.19,0,0,1,33.65,489.14"/><path class="cls-4" d="M496.57,615.7a3274.19,3274.19,0,0,1,33.65,489.14"/><path class="cls-4" d="M567.57,595.7a3274.19,3274.19,0,0,1,33.65,489.14"/><path class="cls-4" d="M1412.57,601.7a3274.19,3274.19,0,0,1,33.65,489.14"/><path class="cls-4" d="M595.93,595.7c11.51,161.9,17,325.56,16.53,489.14"/><path class="cls-4" d="M410.57,587.7a3274.19,3274.19,0,0,1,33.65,489.14"/><path class="cls-4" d="M421.57,566.7a3274.19,3274.19,0,0,1,33.65,489.14"/><path class="cls-4" d="M464.57,592.7a3274.19,3274.19,0,0,1,33.65,489.14"/><path class="cls-4" d="M648.57,592.7a3274.19,3274.19,0,0,1,33.65,489.14"/><path class="cls-4" d="M697.57,604.7a3274.19,3274.19,0,0,1,33.65,489.14"/><path class="cls-4" d="M757.57,604.7a3274.19,3274.19,0,0,1,33.65,489.14"/><path class="cls-4" d="M854.57,604.7a3274.19,3274.19,0,0,1,33.65,489.14"/><path class="cls-4" d="M910.57,604.7a3274.19,3274.19,0,0,1,33.65,489.14"/><path class="cls-4" d="M975.57,592.7a3274.19,3274.19,0,0,1,33.65,489.14"/><path class="cls-4" d="M550.57,592.7a3274.19,3274.19,0,0,1,33.65,489.14"/><path class="cls-4" d="M742.57,592.7a3274.19,3274.19,0,0,1,33.65,489.14"/><path class="cls-4" d="M798.57,592.7a3274.19,3274.19,0,0,1,33.65,489.14"/><path class="cls-4" d="M880.57,592.7a3274.19,3274.19,0,0,1,33.65,489.14"/><path class="cls-4" d="M955.57,604.7a3274.19,3274.19,0,0,1,33.65,489.14"/><path class="cls-4" d="M1031.57,604.7a3274.19,3274.19,0,0,1,33.65,489.14"/><path class="cls-4" d="M1125.57,604.7a3274.19,3274.19,0,0,1,33.65,489.14"/><path class="cls-4" d="M1150.57,592.7a3274.19,3274.19,0,0,1,33.65,489.14"/><path class="cls-4" d="M1184.57,592.7a3274.19,3274.19,0,0,1,33.65,489.14"/><path class="cls-4" d="M825.57,604.7a3274.19,3274.19,0,0,1,33.65,489.14"/><path class="cls-4" d="M894.57,604.7a3274.19,3274.19,0,0,1,33.65,489.14"/><path class="cls-4" d="M1050.57,604.7a3274.19,3274.19,0,0,1,33.65,489.14"/><path class="cls-4" d="M1112.57,604.7a3274.19,3274.19,0,0,1,33.65,489.14"/><path class="cls-4" d="M1223.57,604.7a3274.19,3274.19,0,0,1,33.65,489.14"/><path class="cls-4" d="M1283.57,604.7a3274.19,3274.19,0,0,1,33.65,489.14"/><path class="cls-4" d="M1317.57,604.7a3274.19,3274.19,0,0,1,33.65,489.14"/><path class="cls-4" d="M1402.57,604.7a3274.19,3274.19,0,0,1,33.65,489.14"/><path class="cls-4" d="M1436.57,604.7a3274.19,3274.19,0,0,1,33.65,489.14"/><path class="cls-4" d="M1373.57,592.7a3274.19,3274.19,0,0,1,33.65,489.14"/><path class="cls-4" d="M1295.57,604.7a3274.19,3274.19,0,0,1,33.65,489.14"/><path class="cls-4" d="M1360.57,592.7a3274.19,3274.19,0,0,1,33.65,489.14"/><path class="cls-4" d="M1523.57,578.7a3274.19,3274.19,0,0,1,33.65,489.14"/><path class="cls-4" d="M1564.57,604.7a3274.19,3274.19,0,0,1,33.65,489.14"/><path class="cls-4" d="M1452.57,616.7a3274.19,3274.19,0,0,1,33.65,489.14"/><path class="cls-4" d="M1547.57,616.7a3274.19,3274.19,0,0,1,33.65,489.14"/><path class="cls-4" d="M1000.57,592.7a3274.19,3274.19,0,0,1,33.65,489.14"/><path class="cls-4" d="M1065.57,580.7a3274.19,3274.19,0,0,1,33.65,489.14"/><path class="cls-4" d="M1022.57,604.7a3274.19,3274.19,0,0,1,33.65,489.14"/><path class="cls-4" d="M1099.57,604.7a3274.19,3274.19,0,0,1,33.65,489.14"/><path class="cls-4" d="M1317.57,592.7a3274.19,3274.19,0,0,1,33.65,489.14"/><path class="cls-4" d="M305.57,622.7a3274.19,3274.19,0,0,1,33.65,489.14"/><path class="cls-4" d="M336.57,615.7a3274.19,3274.19,0,0,1,33.65,489.14"/><path class="cls-4" d="M490.57,599.7a3274.19,3274.19,0,0,1,33.65,489.14"/><path class="cls-4" d="M669.57,599.7a3274.19,3274.19,0,0,1,33.65,489.14"/><path class="cls-4" d="M720.57,599.7a3274.19,3274.19,0,0,1,33.65,489.14"/><path class="cls-4" d="M95.57,596.7a3274.19,3274.19,0,0,1,33.65,489.14"/><path class="cls-4" d="M188.57,596.7a3274.19,3274.19,0,0,1,33.65,489.14"/><path class="cls-4" d="M215.57,608.7a3274.19,3274.19,0,0,1,33.65,489.14"/><path class="cls-4" d="M54.57,596.7a3274.19,3274.19,0,0,1,33.65,489.14"/><path class="cls-4" d="M72.57,622.7a3274.19,3274.19,0,0,1,33.65,489.14"/><path class="cls-4" d="M269.57,640.7a3274.19,3274.19,0,0,1,33.65,489.14"/><path class="cls-4" d="M612.57,602.7a3274.19,3274.19,0,0,1,33.65,489.14"/><path class="cls-4" d="M640.93,602.7c11.51,161.9,17,325.56,16.53,489.14"/><path class="cls-4" d="M466.57,573.7a3274.19,3274.19,0,0,1,33.65,489.14"/><path class="cls-4" d="M622.57,573.7a3274.19,3274.19,0,0,1,33.65,489.14"/><path class="cls-4" d="M649.57,585.7a3274.19,3274.19,0,0,1,33.65,489.14"/><path class="cls-4" d="M693.57,599.7a3274.19,3274.19,0,0,1,33.65,489.14"/><path class="cls-4" d="M742.57,611.7a3274.19,3274.19,0,0,1,33.65,489.14"/><path class="cls-4" d="M802.57,611.7a3274.19,3274.19,0,0,1,33.65,489.14"/><path class="cls-4" d="M899.57,611.7a3274.19,3274.19,0,0,1,33.65,489.14"/><path class="cls-4" d="M955.57,611.7a3274.19,3274.19,0,0,1,33.65,489.14"/><path class="cls-4" d="M843.57,599.7a3274.19,3274.19,0,0,1,33.65,489.14"/><path class="cls-4" d="M1000.57,611.7a3274.19,3274.19,0,0,1,33.65,489.14"/><path class="cls-4" d="M975.57,599.7a3274.19,3274.19,0,0,1,33.65,489.14"/><path class="cls-4" d="M1294.57,587.7a3274.19,3274.19,0,0,1,33.65,489.14"/><path class="cls-4" d="M870.57,611.7a3274.19,3274.19,0,0,1,33.65,489.14"/><path class="cls-4" d="M939.57,611.7a3274.19,3274.19,0,0,1,33.65,489.14"/><path class="cls-4" d="M1268.57,611.7a3274.19,3274.19,0,0,1,33.65,489.14"/><path class="cls-4" d="M1362.57,611.7a3274.19,3274.19,0,0,1,33.65,489.14"/><path class="cls-4" d="M1546.57,599.7a3274.19,3274.19,0,0,1,33.65,489.14"/><path class="cls-4" d="M1418.57,599.7a3274.19,3274.19,0,0,1,33.65,489.14"/><path class="cls-4" d="M1379.57,623.7a3274.19,3274.19,0,0,1,33.65,489.14"/><path class="cls-4" d="M1592.57,623.7a3274.19,3274.19,0,0,1,33.65,489.14"/><path class="cls-4" d="M1110.57,587.7a3274.19,3274.19,0,0,1,33.65,489.14"/><path class="cls-4" d="M1144.57,611.7a3274.19,3274.19,0,0,1,33.65,489.14"/><path class="cls-4" d="M823.57,599.7a3274.19,3274.19,0,0,1,33.65,489.14"/><path class="cls-4" d="M1527.57,587.7a3274.19,3274.19,0,0,1,33.65,489.14"/><path class="cls-4" d="M1362.57,599.7a3274.19,3274.19,0,0,1,33.65,489.14"/></g><g id="bondegård"><polygon class="cls-5" points="1127 364 1127 193 1185 104 1278 59 1278 364 1127 364"/><polygon class="cls-5" points="1429 364 1429 193 1371 104 1278 59 1278 364 1429 364"/><line class="cls-6" x1="1203" y1="364" x2="1203" y2="211"/><line class="cls-6" x1="1357" y1="211" x2="1200" y2="211"/><line class="cls-6" x1="1354" y1="364" x2="1354" y2="212"/><circle class="cls-7" cx="1278.5" cy="150.5" r="40.5"/><line class="cls-6" x1="1204" y1="363" x2="1351" y2="213"/><line class="cls-6" x1="1205" y1="211" x2="1353" y2="361"/></g><g id="skyer"><circle class="cls-8" cx="733.45" cy="95.11" r="52.45"/><circle class="cls-8" cx="820.66" cy="95.72" r="54.28"/><circle class="cls-8" cx="899.94" cy="95.72" r="53.06"/><circle class="cls-8" cx="70" cy="149" r="43"/><circle class="cls-8" cx="141.5" cy="149.5" r="44.5"/><circle class="cls-8" cx="206.5" cy="149.5" r="43.5"/><circle class="cls-8" cx="495.79" cy="317.2" r="21.79"/><circle class="cls-8" cx="532.02" cy="317.45" r="22.55"/><circle class="cls-8" cx="564.96" cy="317.45" r="22.04"/></g></svg>
