<svg xmlns="http://www.w3.org/2000/svg" viewBox="0 0 1600 900"><defs><style>.cls-1{fill:#54460e;}.cls-2{fill:none;stroke:#163508;stroke-miterlimit:10;stroke-width:16px;}.cls-3{fill:#c6bd14;}.cls-4{fill:#331c08;}.cls-5{fill:#163508;}</style></defs><title>forgrund</title><g id="strå_-_forgrund" data-name="strå - forgrund"><path class="cls-1" d="M592.57,620.7a3274.19,3274.19,0,0,1,33.65,489.14"/><path class="cls-1" d="M611.57,617.7a3274.19,3274.19,0,0,1,33.65,489.14"/><path class="cls-1" d="M629.57,617.7a3274.19,3274.19,0,0,1,33.65,489.14"/><path class="cls-1" d="M913.57,595.7a3274.19,3274.19,0,0,1,33.65,489.14"/><path class="cls-1" d="M921.57,585.7a3274.19,3274.19,0,0,1,33.65,489.14"/><path class="cls-1" d="M1148.57,572.7a3274.19,3274.19,0,0,1,33.65,489.14"/><path class="cls-1" d="M1167.57,569.7a3274.19,3274.19,0,0,1,33.65,489.14"/><path class="cls-1" d="M1185.57,569.7a3274.19,3274.19,0,0,1,33.65,489.14"/><path class="cls-1" d="M1202.57,581.7a3274.19,3274.19,0,0,1,33.65,489.14"/><path class="cls-1" d="M897.57,590.7a3274.19,3274.19,0,0,1,33.65,489.14"/><path class="cls-1" d="M855.57,584.7a3274.19,3274.19,0,0,1,33.65,489.14"/><path class="cls-1" d="M873.57,584.7a3274.19,3274.19,0,0,1,33.65,489.14"/><path class="cls-1" d="M890.57,593.7a3274.19,3274.19,0,0,1,33.65,489.14"/><path class="cls-1" d="M511.57,611.7a3274.19,3274.19,0,0,1,33.65,489.14"/><path class="cls-1" d="M530.57,608.7a3274.19,3274.19,0,0,1,33.65,489.14"/><path class="cls-1" d="M548.57,608.7a3274.19,3274.19,0,0,1,33.65,489.14"/><path class="cls-1" d="M489.57,608.7a3274.19,3274.19,0,0,1,33.65,489.14"/><path class="cls-1" d="M518.57,608.7a3274.19,3274.19,0,0,1,33.65,489.14"/><path class="cls-1" d="M1478.57,590.7a3274.19,3274.19,0,0,1,33.65,489.14"/><path class="cls-1" d="M1497.57,587.7a3274.19,3274.19,0,0,1,33.65,489.14"/><path class="cls-1" d="M1515.57,587.7a3274.19,3274.19,0,0,1,33.65,489.14"/><path class="cls-1" d="M1489.57,587.7a3274.19,3274.19,0,0,1,33.65,489.14"/><path class="cls-1" d="M1519.57,593.7a3274.19,3274.19,0,0,1,33.65,489.14"/></g><g id="solsikker"><path class="cls-2" d="M263.42,720.48a193.6,193.6,0,0,0-12.65,89.74c1.22,12.47,3.65,24.79,6.08,37.09q11.43,57.95,22.87,115.88"/><ellipse class="cls-3" cx="229.38" cy="656.77" rx="24.55" ry="12.91" transform="matrix(0.99, -0.14, 0.14, 0.99, -89.65, 38.56)"/><ellipse class="cls-3" cx="375.45" cy="678.81" rx="24.55" ry="12.91"/><ellipse class="cls-3" cx="372.3" cy="644.18" rx="24.55" ry="12.91"/><ellipse class="cls-3" cx="343.97" cy="594.44" rx="24.55" ry="12.91" transform="translate(-335.74 496.08) rotate(-51.71)"/><ellipse class="cls-3" cx="313.12" cy="587.52" rx="24.55" ry="12.91" transform="translate(-338.65 723.26) rotate(-73.71)"/><ellipse class="cls-3" cx="307.45" cy="730.44" rx="12.91" ry="24.55" transform="translate(-99.19 50.21) rotate(-8.04)"/><ellipse class="cls-3" cx="274.71" cy="727.92" rx="24.55" ry="12.91" transform="translate(-503.14 711.28) rotate(-68.1)"/><ellipse class="cls-3" cx="362.85" cy="708.4" rx="12.91" ry="24.55" transform="translate(-427.24 612.23) rotate(-55.94)"/><ellipse class="cls-3" cx="255.19" cy="605.15" rx="12.91" ry="24.55" transform="translate(-353.16 357.69) rotate(-45)"/><ellipse class="cls-3" cx="338.3" cy="727.29" rx="12.91" ry="24.55" transform="translate(-265.14 198.85) rotate(-23.85)"/><ellipse class="cls-3" cx="229.38" cy="686.37" rx="24.55" ry="12.91" transform="translate(-312.45 206.65) rotate(-30)"/><ellipse class="cls-3" cx="286.04" cy="589.41" rx="12.91" ry="24.55" transform="translate(-42.4 22.53) rotate(-4.2)"/><ellipse class="cls-3" cx="364.74" cy="614.59" rx="24.55" ry="12.91" transform="translate(-318.66 405.51) rotate(-42.3)"/><ellipse class="cls-3" cx="235.68" cy="627.18" rx="12.91" ry="24.55" transform="translate(-415.9 471.14) rotate(-55.94)"/><ellipse class="cls-3" cx="245.75" cy="710.29" rx="24.55" ry="12.91" transform="translate(-444.55 412.97) rotate(-47.61)"/><circle class="cls-4" cx="304.3" cy="661.5" r="55.4"/><path class="cls-2" d="M133.29,582.93c-.64,49.34,14.35,97.36,22.64,146A542.55,542.55,0,0,1,149.59,942"/><ellipse class="cls-3" cx="115.09" cy="592.44" rx="16.32" ry="31.05" transform="translate(-43.08 10.02) rotate(-4.2)"/><ellipse class="cls-3" cx="152.09" cy="592.44" rx="16.32" ry="31.05" transform="translate(-42.98 12.73) rotate(-4.2)"/><ellipse class="cls-3" cx="128.09" cy="416.44" rx="16.32" ry="31.05" transform="translate(-30.16 10.5) rotate(-4.2)"/><ellipse class="cls-3" cx="172.09" cy="422.44" rx="31.05" ry="16.32" transform="translate(-284.05 424.54) rotate(-68.1)"/><ellipse class="cls-3" cx="200.09" cy="446.44" rx="31.05" ry="16.32" transform="matrix(0.62, -0.78, 0.78, 0.62, -274.29, 326.86)"/><ellipse class="cls-3" cx="85.09" cy="425.44" rx="16.32" ry="31.05" transform="translate(-139.8 54.41) rotate(-19.91)"/><ellipse class="cls-3" cx="215.09" cy="534.44" rx="16.32" ry="31.05" transform="translate(-359.76 496.59) rotate(-64.31)"/><ellipse class="cls-3" cx="185.09" cy="570.44" rx="16.32" ry="31.05" transform="translate(-349.15 297.96) rotate(-45)"/><ellipse class="cls-3" cx="208.09" cy="496.44" rx="31.05" ry="16.32"/><ellipse class="cls-3" cx="74.09" cy="575.44" rx="31.05" ry="16.32" transform="translate(-461.3 351.88) rotate(-60)"/><ellipse class="cls-3" cx="50.09" cy="534.44" rx="31.05" ry="16.32" transform="translate(-157.63 39.48) rotate(-17.41)"/><ellipse class="cls-3" cx="60.09" cy="456.44" rx="16.32" ry="31.05" transform="translate(-275.23 141) rotate(-39.25)"/><ellipse class="cls-3" cx="41.09" cy="495.44" rx="31.05" ry="16.32" transform="translate(-36.18 4.34) rotate(-4.2)"/><circle class="cls-4" cx="132" cy="505" r="63"/><path class="cls-2" d="M1417.48,623.85c-.52,43.44,11.74,85.71,18.51,128.54A513.46,513.46,0,0,1,1430.81,940"/><ellipse class="cls-3" cx="1402.61" cy="632.22" rx="13.35" ry="27.32" transform="translate(-37.94 92.01) rotate(-3.71)"/><ellipse class="cls-3" cx="1432.85" cy="632.22" rx="13.35" ry="27.32" transform="translate(-37.88 93.96) rotate(-3.71)"/><ellipse class="cls-3" cx="1413.23" cy="477.28" rx="13.35" ry="27.32" transform="translate(-27.9 92.37) rotate(-3.71)"/><ellipse class="cls-3" cx="1449.21" cy="482.56" rx="27.08" ry="13.47" transform="translate(510.42 1687.45) rotate(-70.49)"/><ellipse class="cls-3" cx="1472.1" cy="503.69" rx="26.63" ry="13.7" transform="translate(219.03 1425.96) rotate(-55.24)"/><ellipse class="cls-3" cx="1378.08" cy="485.2" rx="13.45" ry="27.12" transform="translate(-82.29 442.07) rotate(-17.7)"/><ellipse class="cls-3" cx="1484.36" cy="581.16" rx="14.15" ry="25.78" transform="translate(259.69 1601.58) rotate(-61.18)"/><ellipse class="cls-3" cx="1459.83" cy="612.86" rx="13.81" ry="26.4" transform="translate(-41.57 1115.36) rotate(-41.28)"/><ellipse class="cls-3" cx="1478.64" cy="547.71" rx="25.38" ry="14.37"/><ellipse class="cls-3" cx="1369.09" cy="617.26" rx="26.88" ry="13.57" transform="translate(198.56 1558.14) rotate(-63.06)"/><ellipse class="cls-3" cx="1349.47" cy="581.16" rx="25.57" ry="14.26" transform="translate(-117.01 490.31) rotate(-19.75)"/><ellipse class="cls-3" cx="1357.64" cy="512.49" rx="13.71" ry="26.6" transform="translate(-44.07 888.04) rotate(-35.68)"/><ellipse class="cls-3" cx="1342.11" cy="546.83" rx="25.39" ry="14.36" transform="translate(-41.15 114.54) rotate(-4.81)"/><ellipse class="cls-4" cx="1416.43" cy="555.25" rx="51.51" ry="55.46"/><ellipse class="cls-5" cx="113" cy="665" rx="30" ry="17"/><ellipse class="cls-5" cx="182.5" cy="748" rx="26.5" ry="13"/><ellipse class="cls-5" cx="130.5" cy="828" rx="27.5" ry="13"/><ellipse class="cls-5" cx="269" cy="798" rx="25" ry="14"/><ellipse class="cls-5" cx="229.5" cy="864" rx="24.5" ry="12"/><ellipse class="cls-5" cx="1403" cy="718.5" rx="23" ry="13.5"/><ellipse class="cls-5" cx="1468" cy="820" rx="24" ry="14"/></g></svg>
