<svg xmlns="http://www.w3.org/2000/svg" viewBox="0 0 1600 900"><defs><style>.cls-1{fill:#bc2424;}.cls-2{fill:#3159aa;}.cls-3{fill:#704911;}.cls-4,.cls-8{fill:none;stroke:#d6cd29;stroke-miterlimit:10;}.cls-4{stroke-width:5px;}.cls-5{fill:#bc6c44;}.cls-6{fill:#7f0b0b;}.cls-7{fill:#21467c;}.cls-8{stroke-width:6px;}</style></defs><title>fugleskræmsel</title><g id="krop"><polygon class="cls-1" points="184.5 302.5 427.5 302.5 305.5 631.5 184.5 302.5"/><polygon class="cls-2" points="205.42 358.53 254 353 254 303 277 303 277 352 327 354 327 303 348.5 303 347.16 353 407.23 359 306 632 205.42 358.53"/><path class="cls-3" d="M299,147s-83-1-93,85c0,0,1,78,93,86,0,0,84,1,92-86C391,232,393,157,299,147Z"/><path class="cls-3" d="M279.39,152.61,250.5,109h84l-25.78,45.15S302.27,146.22,279.39,152.61Z"/><path d="M285.31,196.5c-12.12.42-22.56,3.34-20.89,30.08s16.29,23,20.89,23.39,13.16-4.13,14.2-23.39C300.08,216.1,297.43,196.08,285.31,196.5Z"/><path d="M320.52,196.5c12.12.42,22.56,3.34,20.89,30.08s-16.29,23-20.89,23.39-13.16-4.13-14.2-23.39C305.75,216.1,308.4,196.08,320.52,196.5Z"/><line class="cls-4" x1="277" y1="109" x2="277" y2="88.5"/><line class="cls-4" x1="282.5" y1="109" x2="282.5" y2="82"/><line class="cls-4" x1="297.5" y1="109.5" x2="298.5" y2="76.5"/><line class="cls-4" x1="290.5" y1="109" x2="290.5" y2="93"/><line class="cls-4" x1="306.5" y1="109.5" x2="307.5" y2="89.5"/><path class="cls-5" d="M294.69,257.86s49,6.13,61.42-19c0,0-4.29,42.28-53.85,45.29C302.26,284.12,283.1,276.6,294.69,257.86Z"/></g><g id="arm1"><path class="cls-1" d="M187.69,302.53c-11.08-5-51.89,120.07-12,200.47h48s18-31.78-4-100.24S187.69,302.53,187.69,302.53Z"/><path class="cls-6" d="M175.5,503H224S201.77,519,175.5,503Z"/><line class="cls-4" x1="184" y1="503" x2="184" y2="523.5"/><line class="cls-4" x1="189.5" y1="503" x2="189.5" y2="530"/><line class="cls-4" x1="204.5" y1="502.5" x2="205.5" y2="535.5"/><line class="cls-4" x1="197.5" y1="503" x2="197.5" y2="519"/><line class="cls-4" x1="213.5" y1="502.5" x2="214.5" y2="522.5"/></g><g id="arm2"><path class="cls-1" d="M424.5,302.53c11.08-5,51.9,120.07,12,200.47h-48s-18-31.78,4-100.24S424.5,302.53,424.5,302.53Z"/><path class="cls-6" d="M437,503H388.5S410.73,519,437,503Z"/><line class="cls-4" x1="401" y1="503" x2="401" y2="523.5"/><line class="cls-4" x1="406.5" y1="503" x2="406.5" y2="530"/><line class="cls-4" x1="418.5" y1="502.5" x2="419.5" y2="535.5"/><line class="cls-4" x1="412.5" y1="503" x2="412.5" y2="519"/><line class="cls-4" x1="426.5" y1="503.5" x2="427.5" y2="523.5"/></g><g id="ben1"><path class="cls-2" d="M266.5,527c-5.89,0-101.27,110.06-53,255h70s27-65,21-157Z"/><path class="cls-7" d="M284,782H214S251,793,284,782Z"/><line class="cls-4" x1="267" y1="781.5" x2="266" y2="804.5"/><line class="cls-4" x1="259.5" y1="782" x2="257.5" y2="796"/><line class="cls-4" x1="243.5" y1="782" x2="239.5" y2="803"/><line class="cls-8" x1="228.5" y1="782" x2="228.5" y2="804"/><line class="cls-4" x1="251.5" y1="782" x2="247.5" y2="810"/></g><g id="ben2"><path class="cls-2" d="M344.78,527c5.89,0,101.27,110.06,53,255h-70s-27-65-21-157Z"/><path class="cls-7" d="M327,782h70S360,793,327,782Z"/><line class="cls-4" x1="343" y1="781" x2="344" y2="804"/><line class="cls-4" x1="350.5" y1="781.5" x2="352.5" y2="795.5"/><line class="cls-4" x1="366.5" y1="781.5" x2="370.5" y2="802.5"/><line class="cls-4" x1="381.5" y1="781.5" x2="381.5" y2="803.5"/><line class="cls-4" x1="358.5" y1="781.5" x2="362.5" y2="809.5"/></g></svg>
