<svg xmlns="http://www.w3.org/2000/svg" viewBox="0 0 1600 900"><defs><style>.cls-1{fill:#514b4b;}.cls-2{fill:#fff;}.cls-3{fill:#d87613;}.cls-4{fill:#6b6661;}</style></defs><title>fugl1</title><g id="krop"><path class="cls-1" d="M322.5,273.5s-25-34-8-36,20,31,20,31-6-61,17-31a45.93,45.93,0,0,1,0,31s12-52,21-32-8,37-8,37,88-22,89,73-68,96-97,102-114-14-96-102C260.5,346.5,264.5,285.5,322.5,273.5Z"/><path class="cls-1" d="M330,441.48s-53.51,13-35.51,81,62,55,62,55,51-4,65-58S377.42,429.08,372,437.79C372,437.79,339.51,445.46,330,441.48Z"/></g><g id="ansigt"><path class="cls-2" d="M386.5,395s-29,4-31-34c0,0,1-31,31-29,0,0,25,5,21,32C407.5,364,415.5,388,386.5,395Z"/><path class="cls-2" d="M333.5,332s-29-4-31,34c0,0,1,31,31,29,0,0,25-5,21-32C354.5,363,362.5,339,333.5,332Z"/><polygon class="cls-3" points="302.5 395 408.5 395 355.5 490 302.5 395"/><path d="M329.5,344s-18,2-21,25,21,26,21,26,21-3,22-26S329.5,344,329.5,344Z"/><path d="M382.5,344s-18,2-21,25,21,26,21,26,21-3,22-26S382.5,344,382.5,344Z"/></g><g id="vinge2"><path class="cls-4" d="M398.5,446.5l-25,87,50-54S410.5,448.5,398.5,446.5Z"/></g><g id="vinge1"><path class="cls-4" d="M307.5,450.5l25,87L283.88,485S295.5,452.5,307.5,450.5Z"/></g><g id="ben2"><polygon class="cls-3" points="267 632.5 332 607.5 332 570.29 344 574.5 344 616.5 281 656.5 294 639.5 275 644.5 290 633.5 261 636.5 267 632.5"/></g><g id="ben1"><polygon class="cls-3" points="444 632.5 379 607.5 379 566.39 367 572 367 616.5 430 656.5 417 639.5 436 644.5 421 633.5 450 636.5 444 632.5"/></g></svg>
